HIERARCHY
ROOT Hips
{
	OFFSET	0.0000	0.0000	0.0000
	CHANNELS 6 Xposition Yposition Zposition Xrotation Yrotation Zrotation
	JOINT Spine
	{
		OFFSET	0.0000	9.5923	-5.1908
		CHANNELS 3 Xrotation Yrotation Zrotation
		JOINT Spine1
		{
			OFFSET	0.0000	8.7537	0.4573
			CHANNELS 3 Xrotation Yrotation Zrotation
			JOINT Spine2
			{
				OFFSET	0.0000	10.8317	-2.4110
				CHANNELS 3 Xrotation Yrotation Zrotation
				JOINT Neck
				{
					OFFSET	0.0000	24.4089	-0.5076
					CHANNELS 3 Xrotation Yrotation Zrotation
					JOINT Head
					{
						OFFSET	-0.0001	13.7840	3.7493
						CHANNELS 3 Xrotation Yrotation Zrotation
						End Site
						{
							OFFSET	0.0001	19.2597	0.5750
						}
					}
				}
				JOINT LeftShoulder
				{
					OFFSET	2.4643	23.5558	8.0704
					CHANNELS 3 Xrotation Yrotation Zrotation
					JOINT LeftArm
					{
						OFFSET	14.3966	3.3787	-5.4672
						CHANNELS 3 Xrotation Yrotation Zrotation
						JOINT LeftForeArm
						{
							OFFSET	30.5813	-0.1084	-0.2650
							CHANNELS 3 Xrotation Yrotation Zrotation
							JOINT LeftHand
							{
								OFFSET	25.5113	0.0740	-0.1528
								CHANNELS 3 Xrotation Yrotation Zrotation
								JOINT LeftHandIndex1
								{
									OFFSET	9.8875	0.8647	2.7462
									CHANNELS 3 Xrotation Yrotation Zrotation
									JOINT LeftHandIndex2
									{
										OFFSET	3.6984	-0.9018	0.6517
										CHANNELS 3 Xrotation Yrotation Zrotation
										JOINT LeftHandIndex3
										{
											OFFSET	2.5248	-0.6158	0.4450
											CHANNELS 3 Xrotation Yrotation Zrotation
											End Site
											{
												OFFSET	1.7966	-0.5363	0.2914
											}
										}
									}
								}
								JOINT LeftHandMiddle1
								{
									OFFSET	10.0350	0.9986	0.2391
									CHANNELS 3 Xrotation Yrotation Zrotation
									JOINT LeftHandMiddle2
									{
										OFFSET	4.5729	0.0128	-0.0270
										CHANNELS 3 Xrotation Yrotation Zrotation
										JOINT LeftHandMiddle3
										{
											OFFSET	2.5347	0.0078	-0.0154
											CHANNELS 3 Xrotation Yrotation Zrotation
											End Site
											{
												OFFSET	2.2767	-0.1608	0.0031
											}
										}
									}
								}
								JOINT LeftHandRing1
								{
									OFFSET	9.5103	0.6665	-2.2500
									CHANNELS 3 Xrotation Yrotation Zrotation
									JOINT LeftHandRing2
									{
										OFFSET	4.1494	-0.2101	-0.2598
										CHANNELS 3 Xrotation Yrotation Zrotation
										JOINT LeftHandRing3
										{
											OFFSET	2.3645	-0.1190	-0.1485
											CHANNELS 3 Xrotation Yrotation Zrotation
											End Site
											{
												OFFSET	2.0907	-0.2570	-0.0988
											}
										}
									}
								}
								JOINT LeftHandPinky1
								{
									OFFSET	8.8251	-0.6706	-3.8857
									CHANNELS 3 Xrotation Yrotation Zrotation
									JOINT LeftHandPinky2
									{
										OFFSET	2.5523	-0.5322	-0.7045
										CHANNELS 3 Xrotation Yrotation Zrotation
										JOINT LeftHandPinky3
										{
											OFFSET	1.8716	-0.3898	-0.5170
											CHANNELS 3 Xrotation Yrotation Zrotation
											End Site
											{
												OFFSET	1.6612	-0.4564	-0.3811
											}
										}
									}
								}
								JOINT LeftHandThumb1
								{
									OFFSET	2.0454	-1.5481	1.5506
									CHANNELS 3 Xrotation Yrotation Zrotation
									JOINT LeftHandThumb2
									{
										OFFSET	3.8081	-1.2506	2.8711
										CHANNELS 3 Xrotation Yrotation Zrotation
										JOINT LeftHandThumb3
										{
											OFFSET	2.5076	-0.8973	1.8066
											CHANNELS 3 Xrotation Yrotation Zrotation
											End Site
											{
												OFFSET	1.8440	-0.6348	1.2627
											}
										}
									}
								}
							}
						}
					}
				}
				JOINT RightShoulder
				{
					OFFSET	-2.4643	23.5558	8.0703
					CHANNELS 3 Xrotation Yrotation Zrotation
					JOINT RightArm
					{
						OFFSET	-14.3992	3.3793	-5.4681
						CHANNELS 3 Xrotation Yrotation Zrotation
						JOINT RightForeArm
						{
							OFFSET	-30.5813	-0.1084	-0.2650
							CHANNELS 3 Xrotation Yrotation Zrotation
							JOINT RightHand
							{
								OFFSET	-25.5113	0.0740	-0.1528
								CHANNELS 3 Xrotation Yrotation Zrotation
								JOINT RightHandIndex1
								{
									OFFSET	-9.8875	0.8648	2.7462
									CHANNELS 3 Xrotation Yrotation Zrotation
									JOINT RightHandIndex2
									{
										OFFSET	-3.6984	-0.9018	0.6517
										CHANNELS 3 Xrotation Yrotation Zrotation
										JOINT RightHandIndex3
										{
											OFFSET	-2.5248	-0.6160	0.4450
											CHANNELS 3 Xrotation Yrotation Zrotation
											End Site
											{
												OFFSET	-1.7966	-0.5363	0.2914
											}
										}
									}
								}
								JOINT RightHandMiddle1
								{
									OFFSET	-10.0350	0.9986	0.2391
									CHANNELS 3 Xrotation Yrotation Zrotation
									JOINT RightHandMiddle2
									{
										OFFSET	-4.5729	0.0128	-0.0270
										CHANNELS 3 Xrotation Yrotation Zrotation
										JOINT RightHandMiddle3
										{
											OFFSET	-2.5347	0.0078	-0.0155
											CHANNELS 3 Xrotation Yrotation Zrotation
											End Site
											{
												OFFSET	-2.2767	-0.1608	0.0031
											}
										}
									}
								}
								JOINT RightHandRing1
								{
									OFFSET	-9.5103	0.6665	-2.2500
									CHANNELS 3 Xrotation Yrotation Zrotation
									JOINT RightHandRing2
									{
										OFFSET	-4.1494	-0.2101	-0.2598
										CHANNELS 3 Xrotation Yrotation Zrotation
										JOINT RightHandRing3
										{
											OFFSET	-2.3646	-0.1190	-0.1485
											CHANNELS 3 Xrotation Yrotation Zrotation
											End Site
											{
												OFFSET	-2.0907	-0.2571	-0.0988
											}
										}
									}
								}
								JOINT RightHandPinky1
								{
									OFFSET	-8.8252	-0.6706	-3.8857
									CHANNELS 3 Xrotation Yrotation Zrotation
									JOINT RightHandPinky2
									{
										OFFSET	-2.5523	-0.5322	-0.7045
										CHANNELS 3 Xrotation Yrotation Zrotation
										JOINT RightHandPinky3
										{
											OFFSET	-1.8716	-0.3897	-0.5170
											CHANNELS 3 Xrotation Yrotation Zrotation
											End Site
											{
												OFFSET	-1.6612	-0.4564	-0.3811
											}
										}
									}
								}
								JOINT RightHandThumb1
								{
									OFFSET	-2.0454	-1.5480	1.5505
									CHANNELS 3 Xrotation Yrotation Zrotation
									JOINT RightHandThumb2
									{
										OFFSET	-3.8081	-1.2508	2.8712
										CHANNELS 3 Xrotation Yrotation Zrotation
										JOINT RightHandThumb3
										{
											OFFSET	-2.5075	-0.8972	1.8066
											CHANNELS 3 Xrotation Yrotation Zrotation
											End Site
											{
												OFFSET	-1.8440	-0.6348	1.2627
											}
										}
									}
								}
							}
						}
					}
				}
			}
		}
	}
	JOINT RightUpLeg
	{
		OFFSET	-10.2614	4.3360	-0.8458
		CHANNELS 3 Xrotation Yrotation Zrotation
		JOINT RightLeg
		{
			OFFSET	-0.8211	-44.6324	0.0000
			CHANNELS 3 Xrotation Yrotation Zrotation
			JOINT RightFoot
			{
				OFFSET	0.0000	-43.8263	0.0000
				CHANNELS 3 Xrotation Yrotation Zrotation
				JOINT RightToeBase
				{
					OFFSET	0.0000	-4.8169	10.0728
					CHANNELS 3 Xrotation Yrotation Zrotation
					End Site
					{
						OFFSET	0.0000	0.0000	6.7574
					}
				}
			}
		}
	}
	JOINT LeftUpLeg
	{
		OFFSET	10.2613	4.3363	-0.8458
		CHANNELS 3 Xrotation Yrotation Zrotation
		JOINT LeftLeg
		{
			OFFSET	0.8212	-44.6327	0.0000
			CHANNELS 3 Xrotation Yrotation Zrotation
			JOINT LeftFoot
			{
				OFFSET	0.0000	-43.8263	0.0000
				CHANNELS 3 Xrotation Yrotation Zrotation
				JOINT LeftToeBase
				{
					OFFSET	0.0000	-4.8169	10.0728
					CHANNELS 3 Xrotation Yrotation Zrotation
					End Site
					{
						OFFSET	0.0000	0.0000	6.7574
					}
				}
			}
		}
	}
}
MOTION
Frames:	4
Frame Time: 0.0333333000
	69.7119	99.2004	9.8625	7.732178	17.071960	-0.706194	0.000000	-0.000001	0.000000	-1.458557	4.860237	-0.597242	-4.748489	16.249140	-1.530369	-3.580401	-2.666557	8.721906	-1.018365	-0.085082	2.238016	0.000000	-0.000001	-5.898883	60.668000	-8.258861	-47.968020	1.685137	-85.000950	1.506811	0.000001	-0.000001	0.000000	0.000002	0.000000	0.000004	0.000002	0.000000	0.000004	0.000002	0.000000	0.000004	0.000002	0.000000	0.000004	0.000002	0.000000	0.000004	0.000002	0.000000	0.000004	0.000002	0.000000	0.000004	0.000002	0.000000	0.000004	0.000002	0.000000	0.000004	0.000002	0.000000	0.000004	0.000002	0.000000	0.000004	0.000002	0.000000	0.000004	0.000002	0.000000	0.000004	0.000002	0.000000	0.000004	0.000002	0.000000	0.000004	0.000000	0.000001	-2.277305	-30.818780	18.668960	6.581938	179.509600	74.163580	-179.297100	-0.000002	0.000004	-0.000001	0.000001	-0.000001	0.000000	-0.000001	0.000001	0.000000	-0.000001	0.000000	-0.000002	0.000001	-0.000001	0.000000	-0.000001	0.000001	0.000000	-0.000001	0.000000	-0.000002	0.000001	-0.000001	0.000000	-0.000001	0.000001	0.000000	-0.000001	0.000000	-0.000002	0.000001	-0.000001	0.000000	-0.000001	0.000001	0.000000	-0.000001	0.000000	-0.000002	0.000001	-0.000001	0.000000	-0.000001	0.000001	0.000000	-0.000001	0.000000	-0.000002	10.708150	-3.281368	-4.810813	47.627090	-0.000002	0.000000	1.419493	0.543058	0.253957	0.000002	0.000000	0.000000	-26.454210	-3.705217	-0.806254	32.487120	0.000002	0.000000	16.320620	2.676343	0.904052	0.000000	0.000000	0.000000
	70.6697	96.9864	10.8045	7.131839	18.512640	-1.015577	0.000000	0.000000	0.000000	-1.318714	4.050715	-0.950300	-4.191813	13.577240	-2.847402	-3.439416	-2.924257	9.627618	-0.828767	-0.066912	1.724088	0.000000	-0.000003	-6.755449	53.411350	-6.824453	-47.071450	1.444323	-84.162580	1.267363	-0.000001	-0.000001	0.000000	0.000001	-0.000001	0.000000	0.000000	0.000000	0.000000	0.000000	0.000000	0.000000	0.000001	-0.000001	0.000000	0.000000	0.000000	0.000000	0.000000	0.000000	0.000000	0.000001	-0.000001	0.000000	0.000000	0.000000	0.000000	0.000000	0.000000	0.000000	0.000001	-0.000001	0.000000	0.000000	0.000000	0.000000	0.000000	0.000000	0.000000	0.000001	-0.000001	0.000000	0.000000	0.000000	0.000000	0.000000	0.000000	0.000000	0.000000	0.000003	-0.700806	-25.106640	15.555110	7.229605	179.552400	72.811590	-179.337800	0.000000	0.000002	0.000000	0.000000	0.000000	0.000000	0.000000	0.000000	0.000000	0.000000	0.000000	0.000000	0.000000	0.000000	0.000000	0.000000	0.000000	0.000000	0.000000	0.000000	0.000000	0.000000	0.000000	0.000000	0.000000	0.000000	0.000000	0.000000	0.000000	0.000000	0.000000	0.000000	0.000000	0.000000	0.000000	0.000000	0.000000	0.000000	0.000000	0.000000	0.000000	0.000000	0.000000	0.000000	0.000000	0.000000	0.000000	0.000000	9.396693	-5.268480	-5.934281	66.357550	-0.000002	0.000000	0.747660	0.496201	0.235132	-0.000010	-0.000001	0.000002	-24.889240	-6.529704	-0.742364	28.849970	0.000001	0.000000	10.813040	0.854467	0.304096	0.000001	0.000001	0.000000
	71.4091	94.0180	11.3908	6.622679	20.258100	-1.546938	0.000000	0.000000	0.000000	-0.964269	2.937862	-1.322040	-2.978975	9.871653	-4.246049	-4.418048	-3.267787	10.420960	-0.762783	-0.050379	1.383061	0.000000	0.000002	-7.887385	43.947440	-6.490005	-45.318710	1.189160	-82.902530	1.014266	-0.000002	0.000002	-0.000001	0.000002	-0.000003	-0.000002	-0.000002	0.000002	-0.000001	0.000002	-0.000003	-0.000002	0.000002	-0.000003	-0.000002	-0.000002	0.000002	-0.000001	0.000002	-0.000003	-0.000002	0.000002	-0.000003	-0.000002	-0.000002	0.000002	-0.000001	0.000002	-0.000003	-0.000002	0.000002	-0.000003	-0.000002	-0.000002	0.000002	-0.000001	0.000002	-0.000003	-0.000002	0.000002	-0.000003	-0.000002	-0.000002	0.000002	-0.000001	0.000002	-0.000003	-0.000002	0.000000	0.000001	1.167333	-15.263340	8.878144	8.422723	179.640000	69.228260	-179.419300	0.000000	0.000000	-0.000001	0.000000	-0.000001	-0.000001	0.000000	-0.000001	-0.000001	0.000000	-0.000001	-0.000001	0.000000	-0.000001	-0.000001	0.000000	-0.000001	-0.000001	0.000000	-0.000001	-0.000001	0.000000	-0.000001	-0.000001	0.000000	-0.000001	-0.000001	0.000000	-0.000001	-0.000001	0.000000	-0.000001	-0.000001	0.000000	-0.000001	-0.000001	0.000000	-0.000001	-0.000001	0.000000	-0.000001	-0.000001	0.000000	-0.000001	-0.000001	0.000000	-0.000001	-0.000001	7.120835	-7.163372	-7.362419	83.846050	-0.000004	0.000000	0.682694	0.325828	0.154011	0.000000	0.000000	0.000000	-24.244180	-7.160171	0.273212	28.820680	0.000002	0.000000	3.799284	-0.341493	-0.209044	0.000002	0.000001	0.000000
	71.9123	91.3681	11.4837	6.628073	21.404170	-2.144655	0.000000	0.000000	0.000000	-0.599751	1.887760	-1.500443	-1.803583	6.348721	-4.927780	-5.638677	-3.004095	9.166035	-2.618894	-0.104536	1.825877	0.000000	-0.000001	-9.193136	31.899810	-8.338340	-43.256090	0.874478	-80.339600	0.703767	0.000002	0.000002	0.000005	-0.000004	-0.000001	-0.000009	0.000002	0.000002	0.000005	-0.000004	-0.000001	-0.000009	-0.000004	-0.000001	-0.000009	0.000002	0.000002	0.000005	-0.000004	-0.000001	-0.000009	-0.000004	-0.000001	-0.000009	0.000002	0.000002	0.000005	-0.000004	-0.000001	-0.000009	-0.000004	-0.000001	-0.000009	0.000002	0.000002	0.000005	-0.000004	-0.000001	-0.000009	-0.000004	-0.000001	-0.000009	0.000002	0.000002	0.000005	-0.000004	-0.000001	-0.000009	0.000000	0.000001	3.010134	-1.481150	1.780617	13.018550	179.699700	65.857550	-179.473300	0.000000	-0.000003	0.000000	0.000001	-0.000005	0.000000	-0.000002	-0.000002	0.000000	0.000001	0.000003	0.000000	0.000001	-0.000005	0.000000	-0.000002	-0.000002	0.000000	0.000001	0.000003	0.000000	0.000001	-0.000005	0.000000	-0.000002	-0.000002	0.000000	0.000001	0.000003	0.000000	0.000001	-0.000005	0.000000	-0.000002	-0.000002	0.000000	0.000001	0.000003	0.000000	0.000001	-0.000005	0.000000	-0.000002	-0.000002	0.000000	0.000001	0.000003	0.000000	2.865385	-8.861442	-9.682385	99.434360	-0.000004	0.000001	0.661295	0.160410	0.074339	-0.000009	-0.000001	0.000001	-23.832160	-4.381854	1.987289	29.228840	0.000000	0.000000	-1.258665	-1.249505	-0.587451	0.000000	0.000001	0.000000
